<mxfile host="app.diagrams.net" modified="2023-05-20T13:31:59.326Z" agent="Mozilla/5.0 (Windows NT 10.0; Win64; x64) AppleWebKit/537.36 (KHTML, like Gecko) Chrome/112.0.0.0 Safari/537.36 OPR/98.0.0.0 (Edition Yx GX)" version="21.3.2" etag="SpBLt2PbGf1qpmD7pO9b" type="device">
  <diagram id="2Pcy0IRxgb2vHmyPsa8f" name="Страница 1">
    <mxGraphModel dx="1024" dy="950" grid="1" gridSize="10" guides="1" tooltips="1" connect="1" arrows="1" fold="1" page="1" pageScale="1" pageWidth="827" pageHeight="1169" math="0" shadow="0">
      <root>
        <mxCell id="0" />
        <mxCell id="1" parent="0" />
        <mxCell id="2" value="" style="edgeStyle=none;html=1;" parent="1" source="DTUgruY3vjBteYP45iIx-1" target="DTUgruY3vjBteYP45iIx-2" edge="1">
          <mxGeometry relative="1" as="geometry" />
        </mxCell>
        <mxCell id="DTUgruY3vjBteYP45iIx-1" value="Array" style="rounded=1;whiteSpace=wrap;html=1;" parent="1" vertex="1">
          <mxGeometry x="180" y="70" width="120" height="60" as="geometry" />
        </mxCell>
        <mxCell id="3" value="" style="edgeStyle=none;html=1;" parent="1" source="DTUgruY3vjBteYP45iIx-2" target="DTUgruY3vjBteYP45iIx-3" edge="1">
          <mxGeometry relative="1" as="geometry" />
        </mxCell>
        <mxCell id="DTUgruY3vjBteYP45iIx-2" value="array1 = [&lt;font style=&quot;font-size: 12px;&quot;&gt;final, 5, -5, 98432, Kazan, :-), smile&lt;/font&gt;&lt;span style=&quot;background-color: initial;&quot;&gt;]&lt;/span&gt;&lt;br&gt;array2 = array1.length&lt;br&gt;count = 0" style="shape=parallelogram;perimeter=parallelogramPerimeter;whiteSpace=wrap;html=1;fixedSize=1;" parent="1" vertex="1">
          <mxGeometry x="70" y="160" width="340" height="60" as="geometry" />
        </mxCell>
        <mxCell id="4" value="" style="edgeStyle=none;html=1;" parent="1" source="DTUgruY3vjBteYP45iIx-3" target="DTUgruY3vjBteYP45iIx-4" edge="1">
          <mxGeometry relative="1" as="geometry" />
        </mxCell>
        <mxCell id="PNWSOAqlqvHt1mcQQFqQ-21" style="edgeStyle=orthogonalEdgeStyle;rounded=0;orthogonalLoop=1;jettySize=auto;html=1;entryX=0;entryY=0.5;entryDx=0;entryDy=0;" edge="1" parent="1" source="DTUgruY3vjBteYP45iIx-3" target="PNWSOAqlqvHt1mcQQFqQ-20">
          <mxGeometry relative="1" as="geometry" />
        </mxCell>
        <mxCell id="DTUgruY3vjBteYP45iIx-3" value="i = 0; i &amp;lt; array1.length; i+=1" style="shape=hexagon;perimeter=hexagonPerimeter2;whiteSpace=wrap;html=1;fixedSize=1;" parent="1" vertex="1">
          <mxGeometry x="120" y="260" width="240" height="60" as="geometry" />
        </mxCell>
        <mxCell id="PNWSOAqlqvHt1mcQQFqQ-12" style="edgeStyle=orthogonalEdgeStyle;rounded=0;orthogonalLoop=1;jettySize=auto;html=1;entryX=0.5;entryY=0;entryDx=0;entryDy=0;" edge="1" parent="1" source="DTUgruY3vjBteYP45iIx-4" target="DTUgruY3vjBteYP45iIx-5">
          <mxGeometry relative="1" as="geometry" />
        </mxCell>
        <mxCell id="PNWSOAqlqvHt1mcQQFqQ-26" style="edgeStyle=orthogonalEdgeStyle;rounded=0;orthogonalLoop=1;jettySize=auto;html=1;" edge="1" parent="1" source="DTUgruY3vjBteYP45iIx-4">
          <mxGeometry relative="1" as="geometry">
            <mxPoint x="70" y="400" as="targetPoint" />
            <Array as="points">
              <mxPoint x="100" y="400" />
              <mxPoint x="100" y="400" />
            </Array>
          </mxGeometry>
        </mxCell>
        <mxCell id="DTUgruY3vjBteYP45iIx-4" value="array1[i].length &amp;lt;= 3" style="rhombus;whiteSpace=wrap;html=1;" parent="1" vertex="1">
          <mxGeometry x="130" y="360" width="220" height="80" as="geometry" />
        </mxCell>
        <mxCell id="PNWSOAqlqvHt1mcQQFqQ-16" style="edgeStyle=orthogonalEdgeStyle;rounded=0;orthogonalLoop=1;jettySize=auto;html=1;entryX=0;entryY=0.5;entryDx=0;entryDy=0;exitX=0.5;exitY=1;exitDx=0;exitDy=0;" edge="1" parent="1" source="DTUgruY3vjBteYP45iIx-5" target="DTUgruY3vjBteYP45iIx-3">
          <mxGeometry relative="1" as="geometry">
            <mxPoint x="240" y="240" as="targetPoint" />
            <Array as="points">
              <mxPoint x="240" y="550" />
              <mxPoint x="70" y="550" />
              <mxPoint x="70" y="290" />
            </Array>
          </mxGeometry>
        </mxCell>
        <mxCell id="DTUgruY3vjBteYP45iIx-5" value="array2[count] = array[i]&lt;br&gt;count+=1" style="rounded=0;whiteSpace=wrap;html=1;" parent="1" vertex="1">
          <mxGeometry x="165" y="480" width="150" height="60" as="geometry" />
        </mxCell>
        <mxCell id="8" value="No" style="text;html=1;align=center;verticalAlign=middle;resizable=0;points=[];autosize=1;strokeColor=none;fillColor=none;" parent="1" vertex="1">
          <mxGeometry x="90" y="380" width="30" height="20" as="geometry" />
        </mxCell>
        <mxCell id="9" value="Yes" style="text;html=1;align=center;verticalAlign=middle;resizable=0;points=[];autosize=1;strokeColor=none;fillColor=none;" parent="1" vertex="1">
          <mxGeometry x="240" y="450" width="40" height="20" as="geometry" />
        </mxCell>
        <mxCell id="PNWSOAqlqvHt1mcQQFqQ-18" style="edgeStyle=orthogonalEdgeStyle;rounded=0;orthogonalLoop=1;jettySize=auto;html=1;entryX=0.5;entryY=0;entryDx=0;entryDy=0;" edge="1" parent="1" source="PNWSOAqlqvHt1mcQQFqQ-17" target="DTUgruY3vjBteYP45iIx-1">
          <mxGeometry relative="1" as="geometry" />
        </mxCell>
        <mxCell id="PNWSOAqlqvHt1mcQQFqQ-17" value="Start" style="ellipse;whiteSpace=wrap;html=1;" vertex="1" parent="1">
          <mxGeometry x="185" y="10" width="110" height="40" as="geometry" />
        </mxCell>
        <mxCell id="PNWSOAqlqvHt1mcQQFqQ-23" style="edgeStyle=orthogonalEdgeStyle;rounded=0;orthogonalLoop=1;jettySize=auto;html=1;entryX=0;entryY=0.5;entryDx=0;entryDy=0;" edge="1" parent="1" source="PNWSOAqlqvHt1mcQQFqQ-20" target="PNWSOAqlqvHt1mcQQFqQ-22">
          <mxGeometry relative="1" as="geometry" />
        </mxCell>
        <mxCell id="PNWSOAqlqvHt1mcQQFqQ-20" value="Print array2" style="shape=document;whiteSpace=wrap;html=1;boundedLbl=1;" vertex="1" parent="1">
          <mxGeometry x="414" y="250" width="120" height="80" as="geometry" />
        </mxCell>
        <mxCell id="PNWSOAqlqvHt1mcQQFqQ-22" value="Finish" style="ellipse;whiteSpace=wrap;html=1;" vertex="1" parent="1">
          <mxGeometry x="590" y="267.5" width="120" height="45" as="geometry" />
        </mxCell>
      </root>
    </mxGraphModel>
  </diagram>
</mxfile>
